<svg xmlns="http://www.w3.org/2000/svg" xmlns:xlink="http://www.w3.org/1999/xlink" version="1.1" x="0px" y="0px" viewBox="0 0 512 640" enable-background="new 0 0 512 512" xml:space="preserve"><g><g><g><path d="M272.23,32.173c-2.201,0-4.037-1.789-4.037-3.999s1.75-4,3.959-4h0.078c2.211,0,4,1.789,4,4     S274.441,32.173,272.23,32.173z"/></g></g><g><g><path d="M272.23,56.042c-2.201,0-4.037-1.788-4.037-3.999c0-2.21,1.75-3.999,3.959-3.999h0.078c2.211,0,4,1.789,4,3.999     C276.23,54.254,274.441,56.042,272.23,56.042z"/></g></g><g><g><path d="M272.23,79.913c-2.201,0-4.037-1.789-4.037-3.999s1.75-3.999,3.959-3.999h0.078c2.211,0,4,1.789,4,3.999     S274.441,79.913,272.23,79.913z"/></g></g><g><g><path d="M240.238,79.913c-2.203,0-4.038-1.789-4.038-3.999s1.75-3.999,3.96-3.999h0.078c2.21,0,3.999,1.789,3.999,3.999     S242.448,79.913,240.238,79.913z"/></g></g><g><g><path d="M240.238,56.167c-2.203,0-4.038-1.788-4.038-3.999c0-2.21,1.75-3.999,3.96-3.999h0.078c2.21,0,3.999,1.789,3.999,3.999     C244.237,54.379,242.448,56.167,240.238,56.167z"/></g></g><g><g><path d="M240.238,32.423c-2.203,0-4.038-1.789-4.038-3.999s1.75-4,3.96-4h0.078c2.21,0,3.999,1.789,3.999,4     S242.448,32.423,240.238,32.423z"/></g></g><g><g><path d="M256,511.945c-2.21,0-4-1.789-4-4c0-2.209,1.789-3.998,4-3.998c69.625,0,107.977-32.799,107.977-92.355     c0-115.459-86.082-211.931-86.949-212.892c-1.484-1.64-1.352-4.171,0.281-5.655c1.633-1.468,4.162-1.351,5.646,0.281     c0.891,0.984,89.02,99.667,89.02,218.266C371.975,475.367,329.703,511.945,256,511.945z"/></g></g><g><g><path d="M256,511.945c-73.703,0-115.975-36.578-115.975-100.354c0-118.6,88.122-217.282,89.012-218.266     c1.484-1.632,4.007-1.75,5.647-0.281c1.641,1.484,1.766,4.015,0.281,5.655c-0.867,0.961-86.942,97.433-86.942,212.892     c0,59.557,38.352,92.355,107.977,92.355c2.211,0,4,1.789,4,3.998C260,510.156,258.211,511.945,256,511.945z"/></g></g><g><g><path d="M256,351.98c-19.847,0-35.992-16.146-35.992-35.994c0-19.846,16.145-35.992,35.992-35.992     c19.848,0,35.992,16.146,35.992,35.992C291.992,335.834,275.848,351.98,256,351.98z M256,287.994     c-15.434,0-27.994,12.559-27.994,27.992c0,15.436,12.56,27.994,27.994,27.994c15.434,0,27.994-12.559,27.994-27.994     C283.994,300.553,271.434,287.994,256,287.994z"/></g></g><g><g><path d="M256,351.98c-1.273,0-2.46-0.602-3.218-1.625c-5.499-7.428-8.779-20.277-8.779-34.369c0-14.09,3.281-26.939,8.779-34.367     c0.758-1.023,1.945-1.625,3.218-1.625l0,0c1.266,0,2.461,0.602,3.219,1.625c5.49,7.436,8.779,20.285,8.779,34.367     c0,14.084-3.289,26.934-8.779,34.369C258.461,351.379,257.266,351.98,256,351.98z M256,292.328c-2.531,6.256-4,14.715-4,23.658     s1.469,17.404,4,23.66c2.523-6.256,4-14.717,4-23.66S258.523,298.584,256,292.328z"/></g></g><g><g><path d="M280.869,336.139c0,0,0,0-0.008,0c-8.865,0-20.111-3.561-30.86-9.764c-12.201-7.037-21.691-16.301-25.385-24.791     c-0.508-1.164-0.43-2.492,0.203-3.594c0.633-1.1,1.75-1.826,3.016-1.975c9.1-1.039,22.026,2.576,34.164,9.592     c12.193,7.037,21.684,16.301,25.371,24.783c0.508,1.164,0.43,2.492-0.203,3.594c-0.633,1.1-1.75,1.826-3.008,1.975     C283.119,336.076,282.018,336.139,280.869,336.139z M235.512,304.17c4.155,5.311,10.748,10.818,18.488,15.285     c7.669,4.422,15.748,7.396,22.48,8.35c-4.156-5.311-10.748-10.811-18.48-15.277C250.33,308.098,242.245,305.123,235.512,304.17z"/></g></g><g><g><path d="M231.107,336.139L231.107,336.139c-1.141,0-2.234-0.055-3.272-0.172c-1.258-0.141-2.375-0.875-3.008-1.975     c-0.64-1.094-0.718-2.43-0.21-3.594c3.679-8.475,13.169-17.746,25.385-24.791c12.137-7.016,25.081-10.592,34.157-9.592     c1.258,0.148,2.375,0.875,3.008,1.975c0.633,1.102,0.711,2.43,0.203,3.594c-3.688,8.482-13.17,17.746-25.371,24.791     C251.259,332.586,239.996,336.139,231.107,336.139z M276.48,304.17c-6.732,0.953-14.811,3.928-22.48,8.357     c-7.748,4.475-14.341,9.975-18.496,15.285c6.741-0.953,14.825-3.928,22.496-8.357C265.732,314.98,272.324,309.48,276.48,304.17z"/></g></g><g><g><path d="M240.003,279.994c-2.21,0-3.999-1.787-3.999-3.998V100.034c0-2.211,1.789-4,3.999-4s3.999,1.789,3.999,4v175.962     C244.002,278.207,242.214,279.994,240.003,279.994z"/></g></g><g><g><path d="M271.996,279.994c-2.209,0-3.998-1.787-3.998-3.998V100.034c0-2.211,1.789-4,3.998-4c2.211,0,4,1.789,4,4v175.962     C275.996,278.207,274.207,279.994,271.996,279.994z"/></g></g><g><g><path d="M271.996,104.033c-2.209,0-3.998-1.789-3.998-3.999c0-6.616,5.381-11.998,11.996-11.998c2.211,0,4,1.789,4,4     s-1.789,3.999-4,3.999c-2.209,0-3.998,1.796-3.998,4C275.996,102.244,274.207,104.033,271.996,104.033z"/></g></g><g><g><path d="M240.003,104.033c-2.21,0-3.999-1.789-3.999-3.999c0-2.203-1.797-4-3.999-4c-2.211,0-3.999-1.789-3.999-3.999     s1.788-4,3.999-4c6.615,0,11.997,5.382,11.997,11.998C244.002,102.244,242.214,104.033,240.003,104.033z"/></g></g><g><g><path d="M231.998,96.034c-2.117,0-3.882-1.664-3.991-3.796l-4-79.983c-0.109-2.21,1.593-4.085,3.796-4.194     c2.108-0.336,4.085,1.585,4.194,3.788l3.999,79.983c0.109,2.21-1.586,4.085-3.796,4.194     C232.138,96.034,232.068,96.034,231.998,96.034z"/></g></g><g><g><path d="M279.994,96.034c-0.062,0-0.133,0-0.203-0.008c-2.201-0.109-3.904-1.984-3.795-4.194l3.998-79.983     c0.109-2.203,1.953-4.101,4.195-3.788c2.211,0.109,3.906,1.984,3.797,4.194l-4,79.983     C283.877,94.371,282.111,96.034,279.994,96.034z"/></g></g><g><g><path d="M228.014,16.176c-0.617,0-1.258-0.141-1.852-0.445c-1.976-0.984-2.726-3.491-1.734-5.467     C225.28,8.561,230.81,0.055,256,0.055c25.189,0,30.721,8.506,31.572,10.208c0.982,1.976,0.188,4.374-1.789,5.366     c-1.914,0.953-4.227,0.234-5.273-1.601c-0.281-0.39-4.795-5.975-24.51-5.975c-20.316,0-24.495,5.936-24.534,5.991     C230.779,15.418,229.435,16.176,228.014,16.176z"/></g></g><g><g><path d="M256,271.996c-2.21,0-4-1.787-4-3.998V28.049c0-2.21,1.789-4,4-4c2.211,0,4,1.789,4,4v239.949     C260,270.209,258.211,271.996,256,271.996z"/></g></g><g><g><path d="M240.003,439.961c-2.21,0-3.999-1.789-3.999-4v-79.982c0-2.211,1.789-3.998,3.999-3.998s3.999,1.787,3.999,3.998v79.982     C244.002,438.172,242.214,439.961,240.003,439.961z"/></g></g><g><g><path d="M271.996,439.961c-2.209,0-3.998-1.789-3.998-4v-79.982c0-2.211,1.789-3.998,3.998-3.998c2.211,0,4,1.787,4,3.998v79.982     C275.996,438.172,274.207,439.961,271.996,439.961z"/></g></g><g><g><path d="M256,439.961c-2.21,0-4-1.789-4-4v-71.984c0-2.211,1.789-3.998,4-3.998c2.211,0,4,1.787,4,3.998v71.984     C260,438.172,258.211,439.961,256,439.961z"/></g></g><g><g><path d="M295.992,80.038h-15.201c-2.209,0-3.998-1.789-3.998-3.999s1.789-3.999,3.998-3.999h15.201     c2.209,0,3.998,1.789,3.998,3.999S298.201,80.038,295.992,80.038z"/></g></g><g><g><path d="M295.992,84.162c-2.211,0-4-1.789-4-3.999v-7.998c0-2.211,1.789-3.999,4-3.999c2.209,0,3.998,1.788,3.998,3.999v7.998     C299.99,82.373,298.201,84.162,295.992,84.162z"/></g></g><g><g><path d="M295.992,56.042h-13.998c-2.211,0-3.998-1.788-3.998-3.999c0-2.21,1.787-3.999,3.998-3.999h13.998     c2.209,0,3.998,1.789,3.998,3.999C299.99,54.254,298.201,56.042,295.992,56.042z"/></g></g><g><g><path d="M295.992,60.167c-2.211,0-4-1.789-4-4v-7.998c0-2.21,1.789-3.999,4-3.999c2.209,0,3.998,1.789,3.998,3.999v7.998     C299.99,58.378,298.201,60.167,295.992,60.167z"/></g></g><g><g><path d="M295.992,32.048h-12.795c-2.211,0-3.998-1.789-3.998-3.999s1.787-4,3.998-4h12.795c2.209,0,3.998,1.789,3.998,4     S298.201,32.048,295.992,32.048z"/></g></g><g><g><path d="M295.992,36.172c-2.211,0-4-1.789-4-4v-7.999c0-2.21,1.789-3.999,4-3.999c2.209,0,3.998,1.789,3.998,3.999v7.999     C299.99,34.383,298.201,36.172,295.992,36.172z"/></g></g><g><g><path d="M231.208,80.163c-0.008,0-0.023,0-0.031,0l-15.2-0.125c-2.21-0.016-3.991-1.82-3.968-4.03     c0.016-2.203,1.805-3.968,3.999-3.968c0.008,0,0.023,0,0.031,0l15.2,0.125c2.21,0.016,3.991,1.82,3.968,4.03     C235.192,78.397,233.403,80.163,231.208,80.163z"/></g></g><g><g><path d="M216.008,84.162c-2.21,0-3.999-1.789-3.999-3.999v-7.998c0-2.211,1.789-3.999,3.999-3.999c2.211,0,4,1.788,4,3.999v7.998     C220.008,82.373,218.219,84.162,216.008,84.162z"/></g></g><g><g><path d="M230.005,56.042h-13.997c-2.21,0-3.999-1.788-3.999-3.999c0-2.21,1.789-3.999,3.999-3.999h13.997     c2.211,0,3.999,1.789,3.999,3.999C234.004,54.254,232.216,56.042,230.005,56.042z"/></g></g><g><g><path d="M216.008,60.167c-2.21,0-3.999-1.789-3.999-4v-7.998c0-2.21,1.789-3.999,3.999-3.999c2.211,0,4,1.789,4,3.999v7.998     C220.008,58.378,218.219,60.167,216.008,60.167z"/></g></g><g><g><path d="M228.811,32.173c-0.016,0-0.031,0-0.039,0l-12.802-0.125c-2.21-0.023-3.983-1.828-3.96-4.038     c0.016-2.21,1.758-3.898,4.038-3.96l12.802,0.125c2.21,0.023,3.976,1.828,3.96,4.039     C232.786,30.408,230.998,32.173,228.811,32.173z"/></g></g><g><g><path d="M216.008,36.172c-2.21,0-3.999-1.789-3.999-4v-7.999c0-2.21,1.789-3.999,3.999-3.999c2.211,0,4,1.789,4,3.999v7.999     C220.008,34.383,218.219,36.172,216.008,36.172z"/></g></g><g><g><path d="M295.992,431.963h-79.984c-2.21,0-3.999-1.789-3.999-4s1.789-3.998,3.999-3.998h79.984c2.209,0,3.998,1.787,3.998,3.998     S298.201,431.963,295.992,431.963z"/></g></g><g><g><path d="M224.007,447.959c-6.842,0-11.998-8.6-11.998-19.996c0-2.211,1.789-3.998,3.999-3.998c2.211,0,4,1.787,4,3.998     c0,7.74,3,11.998,3.999,11.998c2.21,0,4,1.789,4,3.998C228.006,446.17,226.217,447.959,224.007,447.959z"/></g></g><g><g><path d="M287.994,447.959c-2.211,0-4-1.789-4-4c0-2.209,1.789-3.998,4-3.998c0.99,0,3.998-4.258,3.998-11.998     c0-2.211,1.789-3.998,4-3.998c2.209,0,3.998,1.787,3.998,3.998C299.99,439.359,294.828,447.959,287.994,447.959z"/></g></g><g><g><path d="M287.994,447.959h-63.987c-2.21,0-3.999-1.789-3.999-4c0-2.209,1.789-3.998,3.999-3.998h63.987     c2.209,0,3.998,1.789,3.998,3.998C291.992,446.17,290.203,447.959,287.994,447.959z"/></g></g></g><text x="0" y="527" fill="#000000" font-size="5px" font-weight="bold" font-family="'Helvetica Neue', Helvetica, Arial-Unicode, Arial, Sans-serif">Created by lastspark</text><text x="0" y="532" fill="#000000" font-size="5px" font-weight="bold" font-family="'Helvetica Neue', Helvetica, Arial-Unicode, Arial, Sans-serif">from the Noun Project</text></svg>